STARTFONT 2.1
COMMENT Juliano5p, a free and public domain font, use and share without restrictions.
COMMENT This font can be licensed under the terms of the lesser GPL.
COMMENT This font has been developed by Oliver Kraus as part of the dogm128 library project.
COMMENT 
FONT -gbdfed-Unknown-Medium-R-Normal--6-120-96-96-P-100-FontSpecific-0
SIZE 12 96 96
FONTBOUNDINGBOX 5 6 0 -1
STARTPROPERTIES 9
POINT_SIZE 120
PIXEL_SIZE 6
RESOLUTION_X 96
RESOLUTION_Y 96
FONT_ASCENT 5
FONT_DESCENT 1
AVERAGE_WIDTH 100
SPACING "P"
_GBDFED_INFO "Edited with gbdfed 1.5."
ENDPROPERTIES
CHARS 95
STARTCHAR !
ENCODING 33
SWIDTH 125 0
DWIDTH 2 0
BBX 1 5 0 0
BITMAP
80
80
80
00
80
ENDCHAR
STARTCHAR char34
ENCODING 34
SWIDTH 187 0
DWIDTH 3 0
BBX 3 2 0 3
BITMAP
A0
A0
ENDCHAR
STARTCHAR #
ENCODING 35
SWIDTH 312 0
DWIDTH 5 0
BBX 5 5 0 0
BITMAP
50
F8
50
F8
50
ENDCHAR
STARTCHAR char36
ENCODING 36
SWIDTH 312 0
DWIDTH 5 0
BBX 5 6 0 -1
BITMAP
78
A0
70
28
F0
20
ENDCHAR
STARTCHAR %
ENCODING 37
SWIDTH 312 0
DWIDTH 5 0
BBX 5 5 0 0
BITMAP
C8
D0
20
58
98
ENDCHAR
STARTCHAR &
ENCODING 38
SWIDTH 312 0
DWIDTH 5 0
BBX 5 5 0 0
BITMAP
60
40
A8
90
68
ENDCHAR
STARTCHAR '
ENCODING 39
SWIDTH 62 0
DWIDTH 1 0
BBX 1 2 0 3
BITMAP
80
80
ENDCHAR
STARTCHAR char40
ENCODING 40
SWIDTH 125 0
DWIDTH 2 0
BBX 2 5 0 0
BITMAP
40
80
80
80
40
ENDCHAR
STARTCHAR char41
ENCODING 41
SWIDTH 125 0
DWIDTH 2 0
BBX 2 5 0 0
BITMAP
80
40
40
40
80
ENDCHAR
STARTCHAR *
ENCODING 42
SWIDTH 250 0
DWIDTH 4 0
BBX 4 5 0 0
BITMAP
90
60
F0
60
90
ENDCHAR
STARTCHAR +
ENCODING 43
SWIDTH 187 0
DWIDTH 3 0
BBX 3 3 0 1
BITMAP
40
E0
40
ENDCHAR
STARTCHAR ,
ENCODING 44
SWIDTH 125 0
DWIDTH 2 0
BBX 2 2 0 -1
BITMAP
40
80
ENDCHAR
STARTCHAR -
ENCODING 45
SWIDTH 187 0
DWIDTH 3 0
BBX 3 1 0 2
BITMAP
E0
ENDCHAR
STARTCHAR .
ENCODING 46
SWIDTH 62 0
DWIDTH 1 0
BBX 1 1 0 0
BITMAP
80
ENDCHAR
STARTCHAR /
ENCODING 47
SWIDTH 312 0
DWIDTH 5 0
BBX 5 5 0 0
BITMAP
08
10
20
40
80
ENDCHAR
STARTCHAR 0
ENCODING 48
SWIDTH 250 0
DWIDTH 4 0
BBX 4 5 0 0
BITMAP
60
90
90
90
60
ENDCHAR
STARTCHAR 1
ENCODING 49
SWIDTH 187 0
DWIDTH 3 0
BBX 2 5 1 0
BITMAP
40
C0
40
40
40
ENDCHAR
STARTCHAR char50
ENCODING 50
SWIDTH 250 0
DWIDTH 4 0
BBX 4 5 0 0
BITMAP
60
90
20
40
F0
ENDCHAR
STARTCHAR char51
ENCODING 51
SWIDTH 250 0
DWIDTH 4 0
BBX 4 5 0 0
BITMAP
E0
10
60
10
E0
ENDCHAR
STARTCHAR 4
ENCODING 52
SWIDTH 250 0
DWIDTH 4 0
BBX 4 5 0 0
BITMAP
20
40
A0
F0
20
ENDCHAR
STARTCHAR 5
ENCODING 53
SWIDTH 250 0
DWIDTH 4 0
BBX 4 5 0 0
BITMAP
F0
80
E0
10
E0
ENDCHAR
STARTCHAR 7
ENCODING 54
SWIDTH 250 0
DWIDTH 4 0
BBX 4 5 0 0
BITMAP
60
80
E0
90
60
ENDCHAR
STARTCHAR 7
ENCODING 55
SWIDTH 250 0
DWIDTH 4 0
BBX 4 5 0 0
BITMAP
F0
10
20
40
80
ENDCHAR
STARTCHAR char56
ENCODING 56
SWIDTH 250 0
DWIDTH 4 0
BBX 4 5 0 0
BITMAP
60
90
60
90
60
ENDCHAR
STARTCHAR 9
ENCODING 57
SWIDTH 250 0
DWIDTH 4 0
BBX 4 5 0 0
BITMAP
60
90
70
10
60
ENDCHAR
STARTCHAR :
ENCODING 58
SWIDTH 62 0
DWIDTH 1 0
BBX 1 3 0 1
BITMAP
80
00
80
ENDCHAR
STARTCHAR ;
ENCODING 59
SWIDTH 125 0
DWIDTH 2 0
BBX 2 5 0 -1
BITMAP
40
00
40
40
80
ENDCHAR
STARTCHAR <
ENCODING 60
SWIDTH 187 0
DWIDTH 3 0
BBX 3 5 0 0
BITMAP
20
40
80
40
20
ENDCHAR
STARTCHAR =
ENCODING 61
SWIDTH 250 0
DWIDTH 4 0
BBX 4 3 0 1
BITMAP
F0
00
F0
ENDCHAR
STARTCHAR >
ENCODING 62
SWIDTH 187 0
DWIDTH 3 0
BBX 3 5 0 0
BITMAP
80
40
20
40
80
ENDCHAR
STARTCHAR ?
ENCODING 63
SWIDTH 312 0
DWIDTH 5 0
BBX 4 5 0 0
BITMAP
E0
10
60
00
40
ENDCHAR
STARTCHAR @
ENCODING 64
SWIDTH 312 0
DWIDTH 5 0
BBX 5 5 0 0
BITMAP
70
88
B8
80
70
ENDCHAR
STARTCHAR A
ENCODING 65
SWIDTH 250 0
DWIDTH 4 0
BBX 4 5 0 0
BITMAP
60
90
F0
90
90
ENDCHAR
STARTCHAR B
ENCODING 66
SWIDTH 250 0
DWIDTH 4 0
BBX 4 5 0 0
BITMAP
E0
90
E0
90
E0
ENDCHAR
STARTCHAR C
ENCODING 67
SWIDTH 250 0
DWIDTH 4 0
BBX 4 5 0 0
BITMAP
70
80
80
80
70
ENDCHAR
STARTCHAR D
ENCODING 68
SWIDTH 250 0
DWIDTH 4 0
BBX 4 5 0 0
BITMAP
E0
90
90
90
E0
ENDCHAR
STARTCHAR E
ENCODING 69
SWIDTH 250 0
DWIDTH 4 0
BBX 4 5 0 0
BITMAP
F0
80
E0
80
F0
ENDCHAR
STARTCHAR F
ENCODING 70
SWIDTH 250 0
DWIDTH 4 0
BBX 4 5 0 0
BITMAP
F0
80
E0
80
80
ENDCHAR
STARTCHAR G
ENCODING 71
SWIDTH 250 0
DWIDTH 4 0
BBX 4 5 0 0
BITMAP
70
80
B0
90
70
ENDCHAR
STARTCHAR H
ENCODING 72
SWIDTH 250 0
DWIDTH 4 0
BBX 4 5 0 0
BITMAP
90
90
F0
90
90
ENDCHAR
STARTCHAR I
ENCODING 73
SWIDTH 125 0
DWIDTH 2 0
BBX 1 5 0 0
BITMAP
80
80
80
80
80
ENDCHAR
STARTCHAR J
ENCODING 74
SWIDTH 125 0
DWIDTH 2 0
BBX 2 6 0 -1
BITMAP
C0
40
40
40
40
80
ENDCHAR
STARTCHAR K
ENCODING 75
SWIDTH 250 0
DWIDTH 4 0
BBX 4 5 0 0
BITMAP
90
A0
C0
A0
90
ENDCHAR
STARTCHAR L
ENCODING 76
SWIDTH 187 0
DWIDTH 3 0
BBX 3 5 0 0
BITMAP
80
80
80
80
E0
ENDCHAR
STARTCHAR M
ENCODING 77
SWIDTH 312 0
DWIDTH 5 0
BBX 5 5 0 0
BITMAP
88
D8
A8
88
88
ENDCHAR
STARTCHAR N
ENCODING 78
SWIDTH 250 0
DWIDTH 4 0
BBX 4 5 0 0
BITMAP
90
D0
B0
90
90
ENDCHAR
STARTCHAR O
ENCODING 79
SWIDTH 312 0
DWIDTH 5 0
BBX 5 5 0 0
BITMAP
70
88
88
88
70
ENDCHAR
STARTCHAR P
ENCODING 80
SWIDTH 250 0
DWIDTH 4 0
BBX 4 5 0 0
BITMAP
E0
90
E0
80
80
ENDCHAR
STARTCHAR Q
ENCODING 81
SWIDTH 312 0
DWIDTH 5 0
BBX 5 6 0 -1
BITMAP
70
88
88
88
70
18
ENDCHAR
STARTCHAR R
ENCODING 82
SWIDTH 250 0
DWIDTH 4 0
BBX 4 5 0 0
BITMAP
E0
90
E0
A0
90
ENDCHAR
STARTCHAR char83
ENCODING 83
SWIDTH 250 0
DWIDTH 4 0
BBX 4 5 0 0
BITMAP
70
80
60
10
E0
ENDCHAR
STARTCHAR T
ENCODING 84
SWIDTH 312 0
DWIDTH 5 0
BBX 5 5 0 0
BITMAP
F8
20
20
20
20
ENDCHAR
STARTCHAR U
ENCODING 85
SWIDTH 250 0
DWIDTH 4 0
BBX 4 5 0 0
BITMAP
90
90
90
90
F0
ENDCHAR
STARTCHAR V
ENCODING 86
SWIDTH 250 0
DWIDTH 4 0
BBX 4 5 0 0
BITMAP
90
90
90
A0
C0
ENDCHAR
STARTCHAR char87
ENCODING 87
SWIDTH 312 0
DWIDTH 5 0
BBX 5 5 0 0
BITMAP
88
88
A8
A8
50
ENDCHAR
STARTCHAR X
ENCODING 88
SWIDTH 312 0
DWIDTH 5 0
BBX 5 5 0 0
BITMAP
88
50
20
50
88
ENDCHAR
STARTCHAR Y
ENCODING 89
SWIDTH 312 0
DWIDTH 5 0
BBX 5 5 0 0
BITMAP
88
50
20
20
20
ENDCHAR
STARTCHAR Z
ENCODING 90
SWIDTH 250 0
DWIDTH 4 0
BBX 4 5 0 0
BITMAP
F0
20
40
80
F0
ENDCHAR
STARTCHAR [A
ENCODING 91
SWIDTH 125 0
DWIDTH 2 0
BBX 2 5 0 0
BITMAP
C0
80
80
80
C0
ENDCHAR
STARTCHAR \
ENCODING 92
SWIDTH 312 0
DWIDTH 5 0
BBX 5 5 0 0
BITMAP
80
40
20
10
08
ENDCHAR
STARTCHAR ]
ENCODING 93
SWIDTH 125 0
DWIDTH 2 0
BBX 2 5 0 0
BITMAP
C0
40
40
40
C0
ENDCHAR
STARTCHAR ^
ENCODING 94
SWIDTH 187 0
DWIDTH 3 0
BBX 3 2 0 3
BITMAP
40
A0
ENDCHAR
STARTCHAR _
ENCODING 95
SWIDTH 250 0
DWIDTH 4 0
BBX 4 1 0 -1
BITMAP
F0
ENDCHAR
STARTCHAR `
ENCODING 96
SWIDTH 125 0
DWIDTH 2 0
BBX 2 2 0 3
BITMAP
80
40
ENDCHAR
STARTCHAR a
ENCODING 97
SWIDTH 250 0
DWIDTH 4 0
BBX 4 4 0 0
BITMAP
70
90
90
70
ENDCHAR
STARTCHAR b
ENCODING 98
SWIDTH 250 0
DWIDTH 4 0
BBX 4 5 0 0
BITMAP
80
E0
90
90
E0
ENDCHAR
STARTCHAR c
ENCODING 99
SWIDTH 187 0
DWIDTH 3 0
BBX 3 4 0 0
BITMAP
60
80
80
60
ENDCHAR
STARTCHAR d
ENCODING 100
SWIDTH 250 0
DWIDTH 4 0
BBX 4 5 0 0
BITMAP
10
70
90
90
70
ENDCHAR
STARTCHAR e
ENCODING 101
SWIDTH 250 0
DWIDTH 4 0
BBX 4 4 0 0
BITMAP
60
F0
80
60
ENDCHAR
STARTCHAR f
ENCODING 102
SWIDTH 187 0
DWIDTH 3 0
BBX 3 5 0 0
BITMAP
60
40
E0
40
40
ENDCHAR
STARTCHAR g
ENCODING 103
SWIDTH 250 0
DWIDTH 4 0
BBX 4 5 0 -1
BITMAP
70
90
70
10
60
ENDCHAR
STARTCHAR h
ENCODING 104
SWIDTH 250 0
DWIDTH 4 0
BBX 4 5 0 0
BITMAP
80
E0
90
90
90
ENDCHAR
STARTCHAR i
ENCODING 105
SWIDTH 62 0
DWIDTH 1 0
BBX 1 5 0 0
BITMAP
80
00
80
80
80
ENDCHAR
STARTCHAR char106
ENCODING 106
SWIDTH 125 0
DWIDTH 2 0
BBX 2 6 0 -1
BITMAP
40
00
40
40
40
C0
ENDCHAR
STARTCHAR k
ENCODING 107
SWIDTH 250 0
DWIDTH 4 0
BBX 4 5 0 0
BITMAP
80
90
E0
90
90
ENDCHAR
STARTCHAR l
ENCODING 108
SWIDTH 125 0
DWIDTH 2 0
BBX 2 5 0 0
BITMAP
80
80
80
80
C0
ENDCHAR
STARTCHAR m
ENCODING 109
SWIDTH 312 0
DWIDTH 5 0
BBX 5 4 0 0
BITMAP
50
A8
A8
A8
ENDCHAR
STARTCHAR n
ENCODING 110
SWIDTH 250 0
DWIDTH 4 0
BBX 4 4 0 0
BITMAP
A0
D0
90
90
ENDCHAR
STARTCHAR o
ENCODING 111
SWIDTH 250 0
DWIDTH 4 0
BBX 4 4 0 0
BITMAP
60
90
90
60
ENDCHAR
STARTCHAR p
ENCODING 112
SWIDTH 250 0
DWIDTH 4 0
BBX 4 5 0 -1
BITMAP
E0
90
90
E0
80
ENDCHAR
STARTCHAR q
ENCODING 113
SWIDTH 250 0
DWIDTH 4 0
BBX 4 5 0 -1
BITMAP
70
90
90
70
10
ENDCHAR
STARTCHAR r
ENCODING 114
SWIDTH 187 0
DWIDTH 3 0
BBX 3 4 0 0
BITMAP
A0
C0
80
80
ENDCHAR
STARTCHAR s
ENCODING 115
SWIDTH 250 0
DWIDTH 4 0
BBX 4 4 0 0
BITMAP
70
E0
10
E0
ENDCHAR
STARTCHAR t
ENCODING 116
SWIDTH 187 0
DWIDTH 3 0
BBX 3 5 0 0
BITMAP
40
E0
40
40
60
ENDCHAR
STARTCHAR char117
ENCODING 117
SWIDTH 250 0
DWIDTH 4 0
BBX 4 4 0 0
BITMAP
90
90
90
70
ENDCHAR
STARTCHAR v
ENCODING 118
SWIDTH 250 0
DWIDTH 4 0
BBX 4 4 0 0
BITMAP
90
90
A0
C0
ENDCHAR
STARTCHAR w
ENCODING 119
SWIDTH 312 0
DWIDTH 5 0
BBX 5 4 0 0
BITMAP
88
A8
A8
50
ENDCHAR
STARTCHAR x
ENCODING 120
SWIDTH 250 0
DWIDTH 4 0
BBX 4 4 0 0
BITMAP
90
60
60
90
ENDCHAR
STARTCHAR y
ENCODING 121
SWIDTH 250 0
DWIDTH 4 0
BBX 4 5 0 -1
BITMAP
90
90
70
10
E0
ENDCHAR
STARTCHAR z
ENCODING 122
SWIDTH 250 0
DWIDTH 4 0
BBX 4 4 0 0
BITMAP
F0
20
40
F0
ENDCHAR
STARTCHAR {
ENCODING 123
SWIDTH 187 0
DWIDTH 3 0
BBX 3 5 0 0
BITMAP
60
40
C0
40
60
ENDCHAR
STARTCHAR |
ENCODING 124
SWIDTH 62 0
DWIDTH 1 0
BBX 1 6 0 -1
BITMAP
80
80
80
80
80
80
ENDCHAR
STARTCHAR char124
ENCODING 125
SWIDTH 187 0
DWIDTH 3 0
BBX 3 5 0 0
BITMAP
C0
40
60
40
C0
ENDCHAR
STARTCHAR ~
ENCODING 126
SWIDTH 312 0
DWIDTH 5 0
BBX 5 3 0 1
BITMAP
40
A8
10
ENDCHAR
STARTCHAR char127
ENCODING 127
SWIDTH 250 0
DWIDTH 4 0
BBX 4 5 0 0
BITMAP
F0
90
90
90
F0
ENDCHAR
ENDFONT
